<svg width="24" height="25" viewBox="0 0 24 25" fill="none" xmlns="http://www.w3.org/2000/svg">
<path d="M17.25 13.3906H6.75C6.54375 13.3906 6.375 13.5594 6.375 13.7656V17.8906C6.375 18.0969 6.54375 18.2656 6.75 18.2656H17.25C17.4563 18.2656 17.625 18.0969 17.625 17.8906V13.7656C17.625 13.5594 17.4563 13.3906 17.25 13.3906ZM15.9375 16.5781H8.0625V15.0781H15.9375V16.5781ZM20.8125 19.625C19.8797 19.625 19.125 20.3797 19.125 21.3125C19.125 22.2453 19.8797 23 20.8125 23C21.7453 23 22.5 22.2453 22.5 21.3125C22.5 20.3797 21.7453 19.625 20.8125 19.625ZM20.8125 21.875C20.5008 21.875 20.25 21.6242 20.25 21.3125C20.25 21.0008 20.5008 20.75 20.8125 20.75C21.1242 20.75 21.375 21.0008 21.375 21.3125C21.375 21.6242 21.1242 21.875 20.8125 21.875ZM17.25 6.73438H6.75C6.54375 6.73438 6.375 6.90312 6.375 7.10938V11.2344C6.375 11.4406 6.54375 11.6094 6.75 11.6094H17.25C17.4563 11.6094 17.625 11.4406 17.625 11.2344V7.10938C17.625 6.90312 17.4563 6.73438 17.25 6.73438ZM15.9375 9.92188H8.0625V8.42188H15.9375V9.92188ZM20.8125 5.375C21.7453 5.375 22.5 4.62031 22.5 3.6875C22.5 2.75469 21.7453 2 20.8125 2C19.8797 2 19.125 2.75469 19.125 3.6875C19.125 4.62031 19.8797 5.375 20.8125 5.375ZM20.8125 3.125C21.1242 3.125 21.375 3.37578 21.375 3.6875C21.375 3.99922 21.1242 4.25 20.8125 4.25C20.5008 4.25 20.25 3.99922 20.25 3.6875C20.25 3.37578 20.5008 3.125 20.8125 3.125ZM3.1875 2C2.25469 2 1.5 2.75469 1.5 3.6875C1.5 4.62031 2.25469 5.375 3.1875 5.375C4.12031 5.375 4.875 4.62031 4.875 3.6875C4.875 2.75469 4.12031 2 3.1875 2ZM3.1875 4.25C2.87578 4.25 2.625 3.99922 2.625 3.6875C2.625 3.37578 2.87578 3.125 3.1875 3.125C3.49922 3.125 3.75 3.37578 3.75 3.6875C3.75 3.99922 3.49922 4.25 3.1875 4.25ZM3.1875 19.625C2.25469 19.625 1.5 20.3797 1.5 21.3125C1.5 22.2453 2.25469 23 3.1875 23C4.12031 23 4.875 22.2453 4.875 21.3125C4.875 20.3797 4.12031 19.625 3.1875 19.625ZM3.1875 21.875C2.87578 21.875 2.625 21.6242 2.625 21.3125C2.625 21.0008 2.87578 20.75 3.1875 20.75C3.49922 20.75 3.75 21.0008 3.75 21.3125C3.75 21.6242 3.49922 21.875 3.1875 21.875Z" fill="#444444"/>
</svg>
