<svg width="24" height="25" viewBox="0 0 24 25" fill="none" xmlns="http://www.w3.org/2000/svg">
<path d="M20.772 10.656L19.404 6.551C19.2056 5.95348 18.8238 5.4337 18.3131 5.06551C17.8024 4.69732 17.1886 4.49944 16.559 4.5H7.441C6.81139 4.49944 6.19761 4.69732 5.68688 5.06551C5.17615 5.4337 4.79445 5.95348 4.596 6.551L3.228 10.656C2.86461 10.8085 2.55428 11.0648 2.33584 11.3928C2.11741 11.7208 2.00059 12.1059 2 12.5V17.5C2 18.253 2.423 18.902 3.039 19.243C3.026 19.309 3 19.369 3 19.438V21.5C3 21.7652 3.10536 22.0196 3.29289 22.2071C3.48043 22.3946 3.73478 22.5 4 22.5H5C5.26522 22.5 5.51957 22.3946 5.70711 22.2071C5.89464 22.0196 6 21.7652 6 21.5V19.5H18V21.5C18 21.7652 18.1054 22.0196 18.2929 22.2071C18.4804 22.3946 18.7348 22.5 19 22.5H20C20.2652 22.5 20.5196 22.3946 20.7071 22.2071C20.8946 22.0196 21 21.7652 21 21.5V19.438C21 19.369 20.974 19.308 20.961 19.243C21.2744 19.0721 21.5362 18.8202 21.7189 18.5136C21.9017 18.207 21.9988 17.857 22 17.5V12.5C22 11.671 21.492 10.959 20.772 10.656ZM4 17.5V12.5H20L20.002 17.5H4ZM7.441 6.5H16.558C16.989 6.5 17.371 6.774 17.507 7.184L18.613 10.5H5.387L6.492 7.184C6.55835 6.9848 6.68572 6.81153 6.85605 6.68876C7.02638 6.56599 7.23104 6.49995 7.441 6.5Z" fill="#444444"/>
<path d="M6.5 16.5C7.32843 16.5 8 15.8284 8 15C8 14.1716 7.32843 13.5 6.5 13.5C5.67157 13.5 5 14.1716 5 15C5 15.8284 5.67157 16.5 6.5 16.5Z" fill="#444444"/>
<path d="M17.5 16.5C18.3284 16.5 19 15.8284 19 15C19 14.1716 18.3284 13.5 17.5 13.5C16.6716 13.5 16 14.1716 16 15C16 15.8284 16.6716 16.5 17.5 16.5Z" fill="#444444"/>
</svg>
