<svg width="25" height="25" viewBox="0 0 25 25" fill="none" xmlns="http://www.w3.org/2000/svg">
<rect x="0.5" y="0.5" width="24" height="24" stroke="#EBEBEB"/>
<path d="M10.4167 18.7499C12.2656 18.7495 14.0612 18.1306 15.5177 16.9916L20.0969 21.5708L21.5698 20.0978L16.9906 15.5187C18.1302 14.0621 18.7495 12.266 18.75 10.4166C18.75 5.82179 15.0115 2.08325 10.4167 2.08325C5.82187 2.08325 2.08333 5.82179 2.08333 10.4166C2.08333 15.0114 5.82187 18.7499 10.4167 18.7499ZM10.4167 4.16659C13.8635 4.16659 16.6667 6.96971 16.6667 10.4166C16.6667 13.8635 13.8635 16.6666 10.4167 16.6666C6.96979 16.6666 4.16666 13.8635 4.16666 10.4166C4.16666 6.96971 6.96979 4.16659 10.4167 4.16659Z" fill="#BDBDBD"/>
</svg>
