<svg width="16" height="12" viewBox="0 0 16 12" fill="none" xmlns="http://www.w3.org/2000/svg">
<path fill-rule="evenodd" clip-rule="evenodd" d="M11.3334 0.666504H2.00002C1.26669 0.666504 0.666687 1.2665 0.666687 1.99984V9.33317H2.00002C2.00002 10.4398 2.89335 11.3332 4.00002 11.3332C5.10669 11.3332 6.00002 10.4398 6.00002 9.33317H10C10 10.4398 10.8934 11.3332 12 11.3332C13.1067 11.3332 14 10.4398 14 9.33317H15.3334V5.99984L13.3334 3.33317H11.3334V0.666504ZM4.00002 9.99984C3.63335 9.99984 3.33335 9.69984 3.33335 9.33317C3.33335 8.9665 3.63335 8.6665 4.00002 8.6665C4.36669 8.6665 4.66669 8.9665 4.66669 9.33317C4.66669 9.69984 4.36669 9.99984 4.00002 9.99984ZM5.48002 7.99984H10V1.99984H2.00002V7.99984H2.52002C2.88669 7.59317 3.40669 7.33317 4.00002 7.33317C4.59335 7.33317 5.11335 7.59317 5.48002 7.99984ZM12 9.99984C11.6334 9.99984 11.3334 9.69984 11.3334 9.33317C11.3334 8.9665 11.6334 8.6665 12 8.6665C12.3667 8.6665 12.6667 8.9665 12.6667 9.33317C12.6667 9.69984 12.3667 9.99984 12 9.99984ZM11.3334 4.33317V5.99984H14.3067L13 4.33317H11.3334Z" fill="#8F8F8F"/>
</svg>
