<svg width="20" height="19" viewBox="0 0 20 19" fill="none" xmlns="http://www.w3.org/2000/svg">
<path opacity="0.5" d="M4.45837 14.3134V15.0417H5.18671L12.3592 7.8692L11.6309 7.14087L4.45837 14.3134Z" fill="#0162DD"/>
<path d="M16.8954 5.57333C17.2042 5.26458 17.2042 4.76583 16.8954 4.45708L15.0429 2.60458C14.8846 2.44625 14.6867 2.375 14.4808 2.375C14.275 2.375 14.0771 2.45417 13.9267 2.60458L12.4779 4.05333L15.4467 7.02208L16.8954 5.57333Z" fill="#0162DD"/>
<path fill-rule="evenodd" clip-rule="evenodd" d="M2.875 16.625V13.6562L11.6308 4.90039L14.5996 7.86914L5.84375 16.625H2.875ZM4.45833 15.0416H5.18667L12.3592 7.86914L11.6308 7.14081L4.45833 14.3133V15.0416Z" fill="#0162DD"/>
</svg>
