<svg width="34" height="34" viewBox="0 0 34 34" fill="none" xmlns="http://www.w3.org/2000/svg">
<path fill-rule="evenodd" clip-rule="evenodd" d="M17.0002 7.21083C18.5443 5.3975 20.9102 4.25 23.3752 4.25C27.7385 4.25 31.1668 7.67833 31.1668 12.0417C31.1668 17.3923 26.3581 21.7528 19.0723 28.3596L19.0543 28.3758L17.0002 30.2458L14.946 28.39L14.8901 28.3392C7.62556 21.7377 2.8335 17.383 2.8335 12.0417C2.8335 7.67833 6.26183 4.25 10.6252 4.25C13.0902 4.25 15.456 5.3975 17.0002 7.21083ZM17.0002 26.4208L17.1418 26.2792C23.8852 20.1733 28.3335 16.1358 28.3335 12.0417C28.3335 9.20833 26.2085 7.08333 23.3752 7.08333C21.1935 7.08333 19.0685 8.48583 18.3318 10.4267H15.6827C14.9318 8.48583 12.8068 7.08333 10.6252 7.08333C7.79183 7.08333 5.66683 9.20833 5.66683 12.0417C5.66683 16.1358 10.1152 20.1733 16.8585 26.2792L17.0002 26.4208Z" fill="#444444"/>
</svg>
