<svg width="17" height="17" viewBox="0 0 17 17" fill="none" xmlns="http://www.w3.org/2000/svg">
<path fill-rule="evenodd" clip-rule="evenodd" d="M7.43904 0.993781C7.76171 0.807842 8.12759 0.709961 8.50002 0.709961C8.87247 0.709961 9.23836 0.80785 9.56104 0.993804C9.56153 0.994088 9.56203 0.994373 9.56252 0.994657L14.5209 3.82798C14.8436 4.01431 15.1116 4.28222 15.2981 4.60485C15.4846 4.92748 15.583 5.29347 15.5834 5.66611V11.3342C15.583 11.7069 15.4846 12.0729 15.2981 12.3955C15.1116 12.7181 14.8436 12.986 14.5209 13.1724L14.5181 13.1739L9.56252 16.0057C9.5621 16.0059 9.56167 16.0062 9.56125 16.0064C9.23852 16.1925 8.87255 16.2904 8.50002 16.2904C8.12751 16.2904 7.76155 16.1925 7.43883 16.0064C7.43839 16.0062 7.43796 16.0059 7.43752 16.0057L2.48192 13.1739L2.47919 13.1724C2.15647 12.986 1.88842 12.7181 1.70193 12.3955C1.51544 12.0729 1.41707 11.7069 1.41669 11.3342V5.66611C1.41707 5.29347 1.51544 4.92748 1.70193 4.60485C1.88842 4.28222 2.15647 4.01431 2.47919 3.82799L2.48192 3.82641L7.43904 0.993781ZM8.50002 2.12663C8.37568 2.12663 8.25353 2.15936 8.14585 2.22153L8.14312 2.2231L3.18752 5.05486C3.18715 5.05507 3.18678 5.05529 3.1864 5.05551C3.07933 5.11759 2.99038 5.20664 2.92843 5.31381C2.86632 5.42127 2.83353 5.54315 2.83335 5.66726V11.3331C2.83353 11.4572 2.86632 11.5791 2.92843 11.6865C2.99038 11.7937 3.07933 11.8828 3.1864 11.9448C3.18678 11.9451 3.18715 11.9453 3.18752 11.9455L8.14586 14.7788C8.25353 14.841 8.37568 14.8737 8.50002 14.8737C8.62436 14.8737 8.74651 14.841 8.85419 14.7788L8.85692 14.7773L13.8125 11.9455C13.8129 11.9453 13.8133 11.9451 13.8136 11.9448C13.9207 11.8828 14.0097 11.7937 14.0716 11.6865C14.1338 11.579 14.1666 11.457 14.1667 11.3328V5.66757C14.1666 5.54335 14.1338 5.42135 14.0716 5.31381C14.0097 5.20665 13.9207 5.11759 13.8136 5.05551C13.8133 5.05529 13.8129 5.05508 13.8125 5.05486L8.85418 2.22153C8.7465 2.15936 8.62436 2.12663 8.50002 2.12663Z" fill="#8F8F8F"/>
<path fill-rule="evenodd" clip-rule="evenodd" d="M1.7031 4.57545C1.89898 4.23682 2.33229 4.12111 2.67092 4.31699L8.49999 7.68891L14.3291 4.31699C14.6677 4.12111 15.101 4.23682 15.2969 4.57545C15.4928 4.91408 15.377 5.34739 15.0384 5.54327L8.85467 9.12035C8.63525 9.24728 8.36473 9.24728 8.14531 9.12035L1.96156 5.54327C1.62293 5.34739 1.50722 4.91408 1.7031 4.57545Z" fill="#8F8F8F"/>
<path fill-rule="evenodd" clip-rule="evenodd" d="M8.50002 7.7915C8.89122 7.7915 9.20835 8.10864 9.20835 8.49984V15.6398C9.20835 16.031 8.89122 16.3482 8.50002 16.3482C8.10882 16.3482 7.79169 16.031 7.79169 15.6398V8.49984C7.79169 8.10864 8.10882 7.7915 8.50002 7.7915Z" fill="#8F8F8F"/>
</svg>
