<svg width="14" height="14" viewBox="0 0 14 14" fill="none" xmlns="http://www.w3.org/2000/svg">
<path fill-rule="evenodd" clip-rule="evenodd" d="M0.583332 1.16659C0.583332 0.844419 0.844499 0.583252 1.16667 0.583252H7C7.15471 0.583252 7.30308 0.64471 7.41248 0.754106L12.4245 5.76617C12.7505 6.09405 12.9334 6.53759 12.9334 6.99992C12.9334 7.46224 12.7505 7.90578 12.4245 8.23367L12.0108 7.82242L12.4233 8.2349L8.24104 12.4172C8.24096 12.4172 8.24112 12.4171 8.24104 12.4172C8.07856 12.5798 7.88541 12.709 7.67306 12.797C7.46061 12.8851 7.23289 12.9304 7.00292 12.9304C6.77294 12.9304 6.54522 12.8851 6.33277 12.797C6.12038 12.709 5.92742 12.5799 5.76491 12.4173C5.76487 12.4173 5.76496 12.4173 5.76491 12.4173L0.754427 7.41264C0.644884 7.30322 0.583332 7.15475 0.583332 6.99992V1.16659ZM11.5971 7.41117C11.5973 7.41099 11.5975 7.41081 11.5977 7.41063C11.706 7.30139 11.7668 7.15377 11.7668 6.99992C11.7668 6.84606 11.706 6.69845 11.5977 6.58921C11.5975 6.58903 11.5973 6.58885 11.5971 6.58867L6.75837 1.74992H1.75V6.7581L6.58974 11.5922L6.59021 11.5927C6.64438 11.6469 6.70872 11.6899 6.77953 11.7193C6.85035 11.7486 6.92625 11.7638 7.00292 11.7638C7.07958 11.7638 7.15548 11.7486 7.2263 11.7193C7.29711 11.6899 7.36145 11.6469 7.41562 11.5927L11.5971 7.41117Z" fill="#444444"/>
<path fill-rule="evenodd" clip-rule="evenodd" d="M3.5 4.08333C3.5 3.76117 3.76117 3.5 4.08333 3.5H4.08917C4.41133 3.5 4.6725 3.76117 4.6725 4.08333C4.6725 4.4055 4.41133 4.66667 4.08917 4.66667H4.08333C3.76117 4.66667 3.5 4.4055 3.5 4.08333Z" fill="#444444"/>
</svg>
