<svg width="24" height="25" viewBox="0 0 24 25" fill="none" xmlns="http://www.w3.org/2000/svg">
<path fill-rule="evenodd" clip-rule="evenodd" d="M1 2.5C1 1.94772 1.44772 1.5 2 1.5H12C12.2652 1.5 12.5196 1.60536 12.7071 1.79289L21.2992 10.385C21.858 10.9471 22.1716 11.7074 22.1716 12.5C22.1716 13.2926 21.858 14.0529 21.2992 14.615L20.59 13.91L21.2971 14.6171L14.1275 21.7867C14.1274 21.7868 14.1276 21.7866 14.1275 21.7867C13.849 22.0655 13.5178 22.287 13.1538 22.4379C12.7896 22.5889 12.3992 22.6666 12.005 22.6666C11.6108 22.6666 11.2204 22.5889 10.8562 22.4379C10.4921 22.287 10.1613 22.0658 9.88271 21.7869C9.88264 21.7869 9.88278 21.787 9.88271 21.7869L1.29331 13.2075C1.10552 13.0199 1 12.7654 1 12.5V2.5ZM19.8808 13.205C19.8811 13.2047 19.8814 13.2044 19.8817 13.2041C20.0674 13.0168 20.1716 12.7638 20.1716 12.5C20.1716 12.2362 20.0674 11.9832 19.8817 11.7959C19.8814 11.7956 19.8811 11.7953 19.8808 11.795L11.5858 3.5H3V12.0854L11.2967 20.3725L11.2975 20.3733C11.3904 20.4663 11.5007 20.54 11.6221 20.5903C11.7435 20.6407 11.8736 20.6666 12.005 20.6666C12.1364 20.6666 12.2665 20.6407 12.3879 20.5903C12.5093 20.54 12.6196 20.4663 12.7125 20.3733L19.8808 13.205Z" fill="#444444"/>
<path fill-rule="evenodd" clip-rule="evenodd" d="M6 7.5C6 6.94772 6.44772 6.5 7 6.5H7.01C7.56228 6.5 8.01 6.94772 8.01 7.5C8.01 8.05228 7.56228 8.5 7.01 8.5H7C6.44772 8.5 6 8.05228 6 7.5Z" fill="#444444"/>
</svg>
