<svg width="19" height="19" viewBox="0 0 19 19" fill="none" xmlns="http://www.w3.org/2000/svg">
<path fill-rule="evenodd" clip-rule="evenodd" d="M3.53437 12.2427C4.2767 11.5004 5.28352 11.0833 6.33333 11.0833H12.6667C13.7165 11.0833 14.7233 11.5004 15.4656 12.2427C16.208 12.985 16.625 13.9918 16.625 15.0416V16.625C16.625 17.0622 16.2706 17.4166 15.8333 17.4166C15.3961 17.4166 15.0417 17.0622 15.0417 16.625V15.0416C15.0417 14.4118 14.7914 13.8077 14.346 13.3623C13.9006 12.9169 13.2966 12.6666 12.6667 12.6666H6.33333C5.70344 12.6666 5.09935 12.9169 4.65395 13.3623C4.20856 13.8077 3.95833 14.4118 3.95833 15.0416V16.625C3.95833 17.0622 3.60389 17.4166 3.16667 17.4166C2.72944 17.4166 2.375 17.0622 2.375 16.625V15.0416C2.375 13.9918 2.79204 12.985 3.53437 12.2427Z" fill="#444444"/>
<path fill-rule="evenodd" clip-rule="evenodd" d="M9.50033 3.16671C8.18865 3.16671 7.12533 4.23003 7.12533 5.54171C7.12533 6.85338 8.18865 7.91671 9.50033 7.91671C10.812 7.91671 11.8753 6.85338 11.8753 5.54171C11.8753 4.23003 10.812 3.16671 9.50033 3.16671ZM5.54199 5.54171C5.54199 3.35558 7.3142 1.58337 9.50033 1.58337C11.6865 1.58337 13.4587 3.35558 13.4587 5.54171C13.4587 7.72783 11.6865 9.50004 9.50033 9.50004C7.3142 9.50004 5.54199 7.72783 5.54199 5.54171Z" fill="#444444"/>
</svg>
