<svg width="65" height="65" viewBox="0 0 65 65" fill="none" xmlns="http://www.w3.org/2000/svg">
<path fill-rule="evenodd" clip-rule="evenodd" d="M32.5 29.25C35.0859 29.25 37.5658 28.2228 39.3943 26.3943C41.2228 24.5658 42.25 22.0859 42.25 19.5C42.25 16.9141 41.2228 14.4342 39.3943 12.6057C37.5658 10.7772 35.0859 9.75 32.5 9.75C29.9141 9.75 27.4342 10.7772 25.6057 12.6057C23.7772 14.4342 22.75 16.9141 22.75 19.5C22.75 22.0859 23.7772 24.5658 25.6057 26.3943C27.4342 28.2228 29.9141 29.25 32.5 29.25V29.25ZM9.75 58.5C9.75 55.5124 10.3384 52.5541 11.4817 49.794C12.625 47.0338 14.3008 44.5259 16.4133 42.4133C18.5259 40.3008 21.0338 38.625 23.794 37.4817C26.5541 36.3384 29.5124 35.75 32.5 35.75C35.4876 35.75 38.4459 36.3384 41.2061 37.4817C43.9662 38.625 46.4741 40.3008 48.5867 42.4133C50.6992 44.5259 52.375 47.0338 53.5183 49.794C54.6616 52.5541 55.25 55.5124 55.25 58.5H9.75Z" fill="#BDBDBD"/>
</svg>
