<svg width="24" height="24" viewBox="0 0 24 24" fill="none" xmlns="http://www.w3.org/2000/svg">
<path d="M4.55089e-07 12C-0.000513962 10.6788 0.435095 9.39432 1.23922 8.34597C2.04335 7.29762 3.17103 6.544 4.44726 6.20208C5.72349 5.86016 7.07689 5.94905 8.29743 6.45496C9.51797 6.96086 10.5374 7.8555 11.1975 9.00002H21C21.0986 8.99984 21.1962 9.01909 21.2873 9.05667C21.3784 9.09425 21.4612 9.14942 21.531 9.21902L23.781 11.469C23.8508 11.5387 23.9063 11.6215 23.9441 11.7126C23.9819 11.8037 24.0013 11.9014 24.0013 12C24.0013 12.0987 23.9819 12.1964 23.9441 12.2875C23.9063 12.3786 23.8508 12.4614 23.781 12.531L21.531 14.781C21.4613 14.8509 21.3786 14.9063 21.2874 14.9441C21.1963 14.9819 21.0987 15.0014 21 15.0014C20.9013 15.0014 20.8037 14.9819 20.7126 14.9441C20.6214 14.9063 20.5387 14.8509 20.469 14.781L19.5 13.8105L18.531 14.781C18.4613 14.8509 18.3786 14.9063 18.2874 14.9441C18.1963 14.9819 18.0987 15.0014 18 15.0014C17.9013 15.0014 17.8037 14.9819 17.7126 14.9441C17.6214 14.9063 17.5387 14.8509 17.469 14.781L16.5 13.8105L15.531 14.781C15.4613 14.8509 15.3786 14.9063 15.2874 14.9441C15.1963 14.9819 15.0987 15.0014 15 15.0014C14.9013 15.0014 14.8037 14.9819 14.7126 14.9441C14.6214 14.9063 14.5387 14.8509 14.469 14.781L13.5 13.8105L12.531 14.781C12.4612 14.8506 12.3784 14.9058 12.2873 14.9434C12.1962 14.9809 12.0986 15.0002 12 15H11.1975C10.5374 16.1445 9.51797 17.0392 8.29743 17.5451C7.07689 18.051 5.72349 18.1399 4.44726 17.798C3.17103 17.456 2.04335 16.7024 1.23922 15.6541C0.435095 14.6057 -0.000513962 13.3213 4.55089e-07 12V12ZM6 7.50002C5.19471 7.50032 4.40426 7.71672 3.7111 8.12663C3.01795 8.53654 2.44749 9.12495 2.05924 9.83046C1.67099 10.536 1.47918 11.3328 1.50381 12.1377C1.52845 12.9426 1.76862 13.7261 2.19929 14.4066C2.62995 15.087 3.23532 15.6395 3.95224 16.0062C4.66917 16.373 5.47137 16.5406 6.27518 16.4917C7.07898 16.4428 7.85492 16.179 8.52205 15.728C9.18919 15.277 9.72307 14.6552 10.068 13.9275C10.1289 13.7997 10.2247 13.6917 10.3445 13.616C10.4642 13.5403 10.6029 13.5001 10.7445 13.5H11.6895L12.969 12.219C13.0387 12.1492 13.1214 12.0938 13.2126 12.056C13.3037 12.0181 13.4013 11.9987 13.5 11.9987C13.5987 11.9987 13.6963 12.0181 13.7874 12.056C13.8786 12.0938 13.9613 12.1492 14.031 12.219L15 13.1895L15.969 12.219C16.0387 12.1492 16.1214 12.0938 16.2126 12.056C16.3037 12.0181 16.4013 11.9987 16.5 11.9987C16.5987 11.9987 16.6963 12.0181 16.7874 12.056C16.8786 12.0938 16.9613 12.1492 17.031 12.219L18 13.1895L18.969 12.219C19.0387 12.1492 19.1214 12.0938 19.2126 12.056C19.3037 12.0181 19.4013 11.9987 19.5 11.9987C19.5987 11.9987 19.6963 12.0181 19.7874 12.056C19.8786 12.0938 19.9613 12.1492 20.031 12.219L21 13.1895L22.1895 12L20.6895 10.5H10.7445C10.6029 10.4999 10.4642 10.4597 10.3445 10.384C10.2247 10.3084 10.1289 10.2004 10.068 10.0725C9.70304 9.30258 9.12698 8.65209 8.40684 8.19668C7.68669 7.74128 6.85206 7.4997 6 7.50002V7.50002Z" fill="#444444"/>
<path d="M6 12C6 12.3978 5.84196 12.7794 5.56066 13.0607C5.27936 13.342 4.89782 13.5 4.5 13.5C4.10218 13.5 3.72064 13.342 3.43934 13.0607C3.15804 12.7794 3 12.3978 3 12C3 11.6022 3.15804 11.2206 3.43934 10.9393C3.72064 10.658 4.10218 10.5 4.5 10.5C4.89782 10.5 5.27936 10.658 5.56066 10.9393C5.84196 11.2206 6 11.6022 6 12Z" fill="#444444"/>
</svg>
