<svg width="29" height="29" viewBox="0 0 29 29" fill="none" xmlns="http://www.w3.org/2000/svg">
<path opacity="0.5" d="M14.4998 16.0709C15.2973 16.0709 15.9377 15.4184 15.9377 14.6209L15.9498 7.1292C15.9498 6.3317 15.2973 5.6792 14.4998 5.6792C13.7023 5.6792 13.0498 6.3317 13.0498 7.1292V14.6209C13.0498 15.4184 13.7023 16.0709 14.4998 16.0709Z" fill="#828282"/>
<path fill-rule="evenodd" clip-rule="evenodd" d="M18.1129 14.5C18.1129 16.5058 16.5058 18.125 14.5 18.125C12.4942 18.125 10.875 16.5058 10.875 14.5V7.25C10.875 5.24417 12.4942 3.625 14.5 3.625C16.5058 3.625 18.125 5.24417 18.125 7.25L18.1129 14.5ZM14.5 5.67917C13.7025 5.67917 13.05 6.33167 13.05 7.12917V14.6208C13.05 15.4183 13.7025 16.0708 14.5 16.0708C15.2975 16.0708 15.9379 15.4183 15.9379 14.6208L15.95 7.12917C15.95 6.33167 15.2975 5.67917 14.5 5.67917Z" fill="#828282"/>
<path d="M20.9045 14.5C20.9045 18.125 17.8353 20.6625 14.5003 20.6625C11.1653 20.6625 8.09616 18.125 8.09616 14.5H6.04199C6.04199 18.6204 9.32866 22.0279 13.292 22.62V26.5833H15.7087V22.62C19.672 22.04 22.9587 18.6325 22.9587 14.5H20.9045Z" fill="#828282"/>
</svg>
