<svg width="25" height="25" viewBox="0 0 25 25" fill="none" xmlns="http://www.w3.org/2000/svg">
<path d="M17.7246 8.59375L12.0117 22.6562H14.3184L15.5142 19.8242H19.9351L21.1309 22.6562H23.4375L17.7246 8.59375ZM16.4214 17.6758L17.7246 13.6646L19.0278 17.6758H16.4214ZM13.2812 15.625C13.269 15.6157 12.2759 14.855 11.0635 13.5415C12.9961 10.9224 14.0908 7.94531 14.5376 6.54297H17.1875V4.39453H10.4492V2.34375H8.30078V4.39453H1.5625V6.54297H12.2681C11.8032 7.85889 10.9473 9.93652 9.6416 11.834C8.0459 9.71289 7.33984 8.12891 7.33057 8.1123L6.98242 7.42188L5.12695 8.49609L5.4624 9.17285C5.50586 9.24902 6.30176 11.0234 8.13379 13.3999C8.17871 13.459 8.22412 13.5166 8.26953 13.5742C5.8418 16.3506 3.9165 17.436 3.8916 17.4546L3.125 17.9688L4.24805 19.7266L5.19043 19.1665C5.29785 19.085 7.2085 17.9946 9.68262 15.2222C10.8799 16.5054 11.793 17.2158 11.8457 17.2568L12.4512 17.6758L13.2812 15.625Z" fill="#444444"/>
</svg>
