<svg width="24" height="24" viewBox="0 0 24 24" fill="none" xmlns="http://www.w3.org/2000/svg">
<path fill-rule="evenodd" clip-rule="evenodd" d="M12 4.00024C10.6156 4.00024 9.26219 4.41078 8.11105 5.17993C6.95991 5.94909 6.06271 7.04232 5.53288 8.32138C5.00306 9.60044 4.86441 11.0079 5.13448 12.3657C5.40454 13.7236 6.07115 14.9708 7.05003 15.9498C7.04999 15.9497 7.05006 15.9498 7.05003 15.9498L11.294 20.1928C11.3867 20.2855 11.4972 20.3596 11.6184 20.4098C11.7395 20.46 11.8694 20.4859 12.0005 20.4859C12.1316 20.4859 12.2615 20.46 12.3827 20.4098C12.5038 20.3596 12.6139 20.286 12.7065 20.1932L16.9499 15.9499C16.9499 15.9499 16.9499 15.9499 16.9499 15.9499C17.9288 14.9709 18.5955 13.7236 18.8655 12.3657C19.1356 11.0079 18.997 9.60044 18.4671 8.32138C17.9373 7.04232 17.0401 5.94909 15.889 5.17993C14.7378 4.41078 13.3845 4.00024 12 4.00024ZM18.3641 17.364C19.6228 16.1053 20.4799 14.5017 20.8271 12.7559C21.1743 11.0101 20.9961 9.20049 20.3149 7.55599C19.6337 5.91148 18.4801 4.5059 17.0001 3.51699C15.5201 2.52807 13.78 2.00024 12 2.00024C10.22 2.00024 8.47995 2.52807 6.99992 3.51699C5.51989 4.5059 4.36633 5.91148 3.68513 7.55599C3.00393 9.20049 2.82567 11.0101 3.1729 12.7559C3.52013 14.5017 4.37725 16.1053 5.63588 17.364L9.87955 21.6067C10.158 21.8854 10.4886 22.1065 10.8525 22.2574C11.2165 22.4082 11.6066 22.4859 12.0005 22.4859C12.3945 22.4859 12.7845 22.4082 13.1485 22.2574C13.5123 22.1066 13.8428 21.8856 14.1211 21.6071C14.121 21.6072 14.1212 21.6069 14.1211 21.6071L18.3641 17.364Z" fill="#797979"/>
<path fill-rule="evenodd" clip-rule="evenodd" d="M12 9C11.4696 9 10.9609 9.21071 10.5858 9.58579C10.2107 9.96086 10 10.4696 10 11C10 11.5304 10.2107 12.0391 10.5858 12.4142C10.9609 12.7893 11.4696 13 12 13C12.5304 13 13.0391 12.7893 13.4142 12.4142C13.7893 12.0391 14 11.5304 14 11C14 10.4696 13.7893 9.96086 13.4142 9.58579C13.0391 9.21071 12.5304 9 12 9ZM9.17157 8.17157C9.92172 7.42143 10.9391 7 12 7C13.0609 7 14.0783 7.42143 14.8284 8.17157C15.5786 8.92172 16 9.93913 16 11C16 12.0609 15.5786 13.0783 14.8284 13.8284C14.0783 14.5786 13.0609 15 12 15C10.9391 15 9.92172 14.5786 9.17157 13.8284C8.42143 13.0783 8 12.0609 8 11C8 9.93913 8.42143 8.92172 9.17157 8.17157Z" fill="#797979"/>
</svg>
