<svg width="27" height="27" viewBox="0 0 27 27" fill="none" xmlns="http://www.w3.org/2000/svg">
<path d="M21.9375 3.9375L20.25 2.25L18.5625 3.9375L16.875 2.25L15.1875 3.9375L13.5 2.25L11.8125 3.9375L10.125 2.25L8.4375 3.9375L6.75 2.25V18H3.375V21.375C3.375 23.2425 4.8825 24.75 6.75 24.75H20.25C22.1175 24.75 23.625 23.2425 23.625 21.375V2.25L21.9375 3.9375ZM21.375 21.375C21.375 21.9938 20.8688 22.5 20.25 22.5C19.6312 22.5 19.125 21.9938 19.125 21.375V18H9V5.625H21.375V21.375Z" fill="#0162DD"/>
<path d="M10.125 7.875H16.875V10.125H10.125V7.875ZM18 7.875H20.25V10.125H18V7.875ZM10.125 11.25H16.875V13.5H10.125V11.25ZM18 11.25H20.25V13.5H18V11.25Z" fill="#0162DD"/>
</svg>
