<svg width="24" height="24" viewBox="0 0 24 24" fill="none" xmlns="http://www.w3.org/2000/svg">
<path d="M17.707 12.293C17.6142 12.2 17.504 12.1263 17.3827 12.076C17.2613 12.0257 17.1313 11.9998 17 11.9998C16.8686 11.9998 16.7386 12.0257 16.6173 12.076C16.496 12.1263 16.3858 12.2 16.293 12.293L14.699 13.887C13.96 13.667 12.581 13.167 11.707 12.293C10.833 11.419 10.333 10.04 10.113 9.30096L11.707 7.70696C11.7999 7.61417 11.8737 7.50397 11.924 7.38265C11.9743 7.26134 12.0002 7.13129 12.0002 6.99996C12.0002 6.86862 11.9743 6.73858 11.924 6.61726C11.8737 6.49595 11.7999 6.38575 11.707 6.29296L7.70697 2.29296C7.61418 2.20001 7.50398 2.12627 7.38266 2.07596C7.26135 2.02565 7.1313 1.99976 6.99997 1.99976C6.86863 1.99976 6.73859 2.02565 6.61727 2.07596C6.49596 2.12627 6.38576 2.20001 6.29297 2.29296L3.58097 5.00496C3.20097 5.38496 2.98697 5.90696 2.99497 6.43996C3.01797 7.86396 3.39497 12.81 7.29297 16.708C11.191 20.606 16.137 20.982 17.562 21.006H17.59C18.118 21.006 18.617 20.798 18.995 20.42L21.707 17.708C21.7999 17.6152 21.8737 17.505 21.924 17.3837C21.9743 17.2623 22.0002 17.1323 22.0002 17.001C22.0002 16.8696 21.9743 16.7396 21.924 16.6183C21.8737 16.4969 21.7999 16.3867 21.707 16.294L17.707 12.293ZM17.58 19.005C16.332 18.984 12.062 18.649 8.70697 15.293C5.34097 11.927 5.01497 7.64196 4.99497 6.41896L6.99997 4.41396L9.58597 6.99996L8.29297 8.29296C8.17543 8.41041 8.08901 8.55529 8.04152 8.71453C7.99403 8.87376 7.98697 9.04231 8.02097 9.20496C8.04497 9.31996 8.63197 12.047 10.292 13.707C11.952 15.367 14.679 15.954 14.794 15.978C14.9565 16.0129 15.1252 16.0064 15.2846 15.9591C15.444 15.9117 15.5889 15.825 15.706 15.707L17 14.414L19.586 17L17.58 19.005Z" fill="#797979"/>
</svg>
