<svg width="21" height="23" viewBox="0 0 21 23" fill="none" xmlns="http://www.w3.org/2000/svg">
<path d="M16.9335 15.0859C15.9709 15.0856 15.0464 15.4625 14.3585 16.1358L7.65224 12.3653C7.79004 11.7967 7.79004 11.2033 7.65224 10.6346L14.3564 6.86409C14.9827 7.47331 15.8054 7.83972 16.6772 7.89773C17.549 7.95573 18.413 7.70153 19.1145 7.18065C19.816 6.65977 20.3092 5.9062 20.5058 5.05487C20.7024 4.20354 20.5896 3.31002 20.1875 2.53428C19.7855 1.75855 19.1204 1.15124 18.3115 0.82108C17.5025 0.490925 16.6024 0.459479 15.7724 0.732374C14.9424 1.00527 14.2366 1.56469 13.7814 2.31047C13.3262 3.05626 13.1512 3.93973 13.288 4.8027L6.42564 8.66286C5.88662 8.21377 5.23079 7.92759 4.53498 7.83784C3.83916 7.74809 3.13217 7.85849 2.49685 8.1561C1.86152 8.45371 1.32415 8.92621 0.947712 9.51824C0.57127 10.1103 0.371338 10.7973 0.371338 11.4989C0.371338 12.2005 0.57127 12.8876 0.947712 13.4796C1.32415 14.0716 1.86152 14.5441 2.49685 14.8417C3.13217 15.1393 3.83916 15.2497 4.53498 15.16C5.23079 15.0702 5.88662 14.7841 6.42564 14.335L13.288 18.1972C13.1693 18.9428 13.2821 19.7068 13.6112 20.3862C13.9402 21.0656 14.4696 21.6279 15.1281 21.9971C15.7865 22.3663 16.5424 22.5248 17.2937 22.4511C18.045 22.3774 18.7557 22.0752 19.3299 21.5851C19.9041 21.0951 20.3143 20.4407 20.5051 19.7103C20.6959 18.9799 20.6581 18.2086 20.397 17.5003C20.1358 16.792 19.6638 16.1808 19.0445 15.7491C18.4252 15.3174 17.6884 15.0859 16.9335 15.0859V15.0859Z" fill="#444444"/>
</svg>
