<svg width="15" height="15" viewBox="0 0 15 15" fill="none" xmlns="http://www.w3.org/2000/svg">
<path opacity="0.5" d="M9.67762 7.34495L11.2876 4.42828H4.20012L5.58262 7.34495H9.67762Z" fill="#E2E8F0"/>
<path fill-rule="evenodd" clip-rule="evenodd" d="M10.6984 7.9108C10.5001 8.27247 10.1151 8.51164 9.67761 8.51164H5.33178L4.69011 9.6783H11.6901V10.845H4.69011C3.80344 10.845 3.24344 9.89414 3.66928 9.11247L4.45678 7.68914L2.35678 3.26164H1.19011V2.09497H3.09761L3.64594 3.26164H12.2793C12.7226 3.26164 13.0026 3.73997 12.7868 4.12497L10.6984 7.9108ZM11.2876 4.4283H4.20011L5.58261 7.34497H9.67761L11.2876 4.4283Z" fill="#E2E8F0"/>
<path d="M4.69011 11.4283C4.04845 11.4283 3.52928 11.9533 3.52928 12.595C3.52928 13.2366 4.04845 13.7616 4.69011 13.7616C5.33178 13.7616 5.85678 13.2366 5.85678 12.595C5.85678 11.9533 5.33178 11.4283 4.69011 11.4283Z" fill="#E2E8F0"/>
<path d="M10.5234 11.4283C9.88178 11.4283 9.36261 11.9533 9.36261 12.595C9.36261 13.2366 9.88178 13.7616 10.5234 13.7616C11.1651 13.7616 11.6901 13.2366 11.6901 12.595C11.6901 11.9533 11.1651 11.4283 10.5234 11.4283Z" fill="white"/>
</svg>
