<svg width="15" height="15" viewBox="0 0 15 15" fill="none" xmlns="http://www.w3.org/2000/svg">
<path opacity="0.5" d="M9.67745 7.34495L11.2875 4.42828H4.19995L5.58245 7.34495H9.67745Z" fill="#E2E8F0"/>
<path fill-rule="evenodd" clip-rule="evenodd" d="M10.6983 7.9108C10.4999 8.27247 10.1149 8.51164 9.67744 8.51164H5.33161L4.68994 9.6783H11.6899V10.845H4.68994C3.80327 10.845 3.24327 9.89414 3.66911 9.11247L4.45661 7.68914L2.35661 3.26164H1.18994V2.09497H3.09744L3.64577 3.26164H12.2791C12.7224 3.26164 13.0024 3.73997 12.7866 4.12497L10.6983 7.9108ZM11.2874 4.4283H4.19994L5.58244 7.34497H9.67744L11.2874 4.4283Z" fill="#E2E8F0"/>
<path d="M4.69013 11.4283C4.04846 11.4283 3.5293 11.9533 3.5293 12.595C3.5293 13.2366 4.04846 13.7616 4.69013 13.7616C5.3318 13.7616 5.8568 13.2366 5.8568 12.595C5.8568 11.9533 5.3318 11.4283 4.69013 11.4283Z" fill="#E2E8F0"/>
<path d="M10.5234 11.4283C9.88172 11.4283 9.36255 11.9533 9.36255 12.595C9.36255 13.2366 9.88172 13.7616 10.5234 13.7616C11.165 13.7616 11.69 13.2366 11.69 12.595C11.69 11.9533 11.165 11.4283 10.5234 11.4283Z" fill="white"/>
</svg>
