<svg width="16" height="16" viewBox="0 0 16 16" fill="none" xmlns="http://www.w3.org/2000/svg">
<path fill-rule="evenodd" clip-rule="evenodd" d="M7.97387 3.82202C8.66874 3.02043 9.73334 2.51318 10.8426 2.51318C12.806 2.51318 14.3487 4.02867 14.3487 5.95748C14.3487 8.32271 12.1848 10.2503 8.90631 13.1708L8.89823 13.178L7.97387 14.0046L7.04952 13.1842L7.02435 13.1618C3.75539 10.2436 1.599 8.3186 1.599 5.95748C1.599 4.02867 3.14172 2.51318 5.10518 2.51318C6.21441 2.51318 7.27901 3.02043 7.97387 3.82202ZM7.97387 12.3138L8.03762 12.2511C11.0721 9.55207 13.0738 7.7673 13.0738 5.95748C13.0738 4.70501 12.1175 3.76565 10.8426 3.76565C9.86084 3.76565 8.90461 4.38563 8.57311 5.24357H7.38101C7.04314 4.38563 6.08691 3.76565 5.10518 3.76565C3.83021 3.76565 2.87397 4.70501 2.87397 5.95748C2.87397 7.7673 4.87568 9.55207 7.91013 12.2511L7.97387 12.3138Z" fill="#8F8F8F"/>
</svg>
