<svg width="17" height="17" viewBox="0 0 17 17" fill="none" xmlns="http://www.w3.org/2000/svg">
<path fill-rule="evenodd" clip-rule="evenodd" d="M14.2761 8.24389C14.426 8.39391 14.5103 8.59735 14.5103 8.80949C14.5103 9.02162 14.426 9.22506 14.2761 9.37509L8.67605 14.9751C8.52603 15.1251 8.32258 15.2093 8.11045 15.2093C7.89832 15.2093 7.69487 15.1251 7.54485 14.9751L1.94485 9.37509C1.87045 9.30089 1.81144 9.21274 1.77122 9.11567C1.73099 9.01861 1.71034 8.91455 1.71045 8.80949V4.80949C1.71045 4.17297 1.96331 3.56252 2.41339 3.11243C2.86348 2.66234 3.47393 2.40948 4.11045 2.40948H8.11045C8.31525 2.40948 8.52005 2.48788 8.67605 2.64388L14.2761 8.24389ZM4.11045 5.60949C4.32262 5.60949 4.52611 5.5252 4.67613 5.37517C4.82616 5.22514 4.91045 5.02166 4.91045 4.80949C4.91045 4.59731 4.82616 4.39383 4.67613 4.2438C4.52611 4.09377 4.32262 4.00949 4.11045 4.00949C3.89828 4.00949 3.69479 4.09377 3.54476 4.2438C3.39474 4.39383 3.31045 4.59731 3.31045 4.80949C3.31045 5.02166 3.39474 5.22514 3.54476 5.37517C3.69479 5.5252 3.89828 5.60949 4.11045 5.60949Z" fill="#828282"/>
</svg>
