<svg width="15" height="15" viewBox="0 0 15 15" fill="none" xmlns="http://www.w3.org/2000/svg">
<path opacity="0.5" fill-rule="evenodd" clip-rule="evenodd" d="M4.70703 5.96427C4.70703 4.35427 6.0137 3.04761 7.6237 3.04761C9.2337 3.04761 10.5404 4.35427 10.5404 5.96427C10.5404 7.64427 8.85453 10.1584 7.6237 11.7276C6.41036 10.1701 4.70703 7.62677 4.70703 5.96427ZM6.16536 5.96427C6.16536 6.76927 6.8187 7.42261 7.6237 7.42261C8.4287 7.42261 9.08203 6.76927 9.08203 5.96427C9.08203 5.15927 8.4287 4.50594 7.6237 4.50594C6.8187 4.50594 6.16536 5.15927 6.16536 5.96427Z" fill="#48BB78"/>
<path fill-rule="evenodd" clip-rule="evenodd" d="M3.54053 5.96431C3.54053 3.70681 5.36636 1.88098 7.62386 1.88098C9.88136 1.88098 11.7072 3.70681 11.7072 5.96431C11.7072 9.02681 7.62386 13.5476 7.62386 13.5476C7.62386 13.5476 3.54053 9.02681 3.54053 5.96431ZM7.62386 3.04765C6.01386 3.04765 4.70719 4.35431 4.70719 5.96431C4.70719 7.62681 6.41053 10.1701 7.62386 11.7276C8.86053 10.1585 10.5405 7.64432 10.5405 5.96431C10.5405 4.35431 9.23386 3.04765 7.62386 3.04765Z" fill="#48BB78"/>
<path d="M7.62386 7.42265C8.42928 7.42265 9.08219 6.76973 9.08219 5.96431C9.08219 5.1589 8.42928 4.50598 7.62386 4.50598C6.81845 4.50598 6.16553 5.1589 6.16553 5.96431C6.16553 6.76973 6.81845 7.42265 7.62386 7.42265Z" fill="#48BB78"/>
</svg>
